<?xml version="1.0" standalone="no"?>
<!DOCTYPE svg PUBLIC "-//W3C//DTD SVG 1.0//EN" "http://www.w3.org/TR/2001/REC-SVG-20010904/DTD/svg10.dtd">
<svg xmlns="http://www.w3.org/2000/svg" xmlns:xlink="http://www.w3.org/1999/xlink" id="body_1" width="9600" height="6400">

<g transform="matrix(8 0 0 8 0 0)">
	<g>
		<g>
            <path d="M17.74 235.83L17.59 235.64L16.76 234.98L15.68 234.26999L14.070001 233.06999L13.06 231.93999L11.860001 230.93L10.790001 229.31L9.060001 228.36L7.9000015 229.45L6.7600017 230.8L6.0500016 232.03L5.0600014 234.3L5.0000014 235.76001L6.4900017 237.49L6.370002 237.43001L7.090002 238.57L7.690002 239.70001L8.460002 240.30002L9.180002 240.77002L10.130002 241.25002L11.680002 241.79001L13.060002 242.38L13.810002 242.8L17.740002 235.83L17.74 235.83z" stroke="#000000" stroke-width="0.25" fill="#00394f" />
            <path d="M21.11 245.57L20.99 245.43001L21.289999 244.18001L22.189999 242.68001L23.14 241.61L23.38 239.7L22.55 238.03L21.23 236.72L20.99 236.89L19.56 237.19L18.31 236.6L17.74 235.83L13.809999 242.8L14.129999 242.98L15.089999 243.64L16.34 244.29L18.19 245.43L19.2 246.14L19.980001 246.86L20.070002 246.95L21.11 245.56999L21.11 245.57z" stroke="#000000" stroke-width="0.1" fill="#00394f" fill-rule="nonzero" />
            <path d="M28.51 252.12L28.51 251.04L27.26 249.61L26.25 248.17L25.35 247.58L23.800001 247.04001L22.720001 246.8L21.590002 246.2L21.110003 245.56999L20.070004 246.95L21.230003 248.11L22.130003 249.37L23.380003 250.98L24.930002 252.29L26.840002 253.9L27.310001 254.28L28.510002 252.12L28.51 252.12z" stroke="#000000" stroke-width="0.1" fill="#00394f" fill-rule="nonzero" />
            <path d="M35.84 256.25L35.74 256.23L34.54 255.22002L33.65 253.90001L33.530003 255.40001L31.920002 255.75002L30.540003 254.80002L29.050003 253.60002L28.510002 252.41002L28.510002 252.12003L27.310001 254.28003L29.29 255.87003L30.78 257.36002L33.170002 259.15002L34.070004 259.65002L35.840004 256.25003L35.84 256.25z" stroke="#000000" stroke-width="0.1" fill="#00394f" fill-rule="nonzero" />
            <path d="M44.36 262.6L44.15 262.56L43.02 262.2L41.23 261.54L39.97 260.23L38.84 258.92L37.7 257.25L37.170002 256.53L35.84 256.25L34.07 259.65L35.56 260.47L37.29 261.3L39.260002 262.86L41.050003 264.05L42.180004 264.81998L42.910004 265.33997L44.360004 262.59998L44.36 262.6z" stroke="#000000" stroke-width="0.1" fill="#00394f" fill-rule="nonzero" />
            <path d="M54.27 268.08L53.7 267.75L52.98 267.03L52.149998 266.56L51.309998 266.2L50.3 265.48L49.7 264.88L49.34 264.94L47.73 264.05L46.239998 262.97L44.359997 262.6L42.909996 265.34L44.209995 266.26L46.239994 267.51L47.789993 268.29L49.039993 269.9L49.219994 270.49L50.539993 271.93L51.729992 272.69L54.269993 268.08002L54.27 268.08z" stroke="#000000" stroke-width="0.1" fill="#00394f" fill-rule="nonzero" />
            <path d="M61.13 276.45L61.100002 276.46002L59.430004 275.81003L58.350002 275.15002L57.760002 273.84003L57.04 272.7L56.5 271.81L56.27 270.61L56.27 269.59998L55.55 268.69998L54.53 268.22998L54.27 268.08L51.73 272.68997L52.86 273.41998L53.82 274.66998L55.489998 276.15997L57.039997 278.12997L57.339996 280.33997L57.769997 281.13995L61.129997 276.44995L61.13 276.45z" stroke="#000000" stroke-width="0.1" fill="#00394f" fill-rule="nonzero" />
            <path d="M65.24 286.94L64.68 286.49L63.61 285.28998L63.010002 283.27L63.190002 282.49L63.430004 281.24L63.250004 279.68L62.830006 278.19L62.590004 277.12L62.110004 276.1L61.130005 276.45L57.770004 281.14L58.120003 281.77002L59.49 283.98L60.440002 285.77002L61.640003 288.1L63.010002 289.89L63.38 291.57L65.24 286.94z" stroke="#000000" stroke-width="0.1" fill="#00394f" fill-rule="nonzero" />
            <path d="M70.79 296.5L70.41 295.98L70.83 294.90002L70.83 293.95L69.75 293.29L68.68 292.81L68.26 291.86L67.9 290.18997L67.54 289.11L66.23 287.74L65.240005 286.94L63.380005 291.57L63.430004 291.80002L65.16 293.65002L65.87 296.04004L66.47 297.47003L66.71 300.04004L66.89 301.17004L67.4 302.49005L68.32 301.00006L70.79 296.50006L70.79 296.5z" stroke="#000000" stroke-width="0.1" fill="#00394f" fill-rule="nonzero" />
            <path d="M76.02 305.93L74.46999 304.33L73.689995 300.44998L72.079994 298.24997L70.78999 296.49997L68.31999 300.99997L67.399994 302.48996L67.48999 302.71997L68.49999 304.02997L68.979996 305.10995L70.10999 306.11996L71.009995 306.65997L72.02 307.78998L72.68 308.68997L73.21 309.75998L74.19 310.30997L76.020004 305.92996L76.02 305.93z" stroke="#000000" stroke-width="0.1" fill="#00394f" fill-rule="nonzero" />
            <path d="M84.33 312.57L84.14 312.27002L83.54 308.27002L81.81 306.12003L79.36 306.66003L76.38 306.30005L76.02 305.93005L74.189995 310.31006L74.28999 310.36005L75.05999 311.32004L75.59999 312.45004L76.079994 313.34006L77.329994 313.82007L77.81 314.78006L78.11 315.91006L79.96 317.10007L81.69 317.28006L83.12 317.94006L83.48 318.22006L83.66 316.41006L84.33 312.57007L84.33 312.57z" stroke="#000000" stroke-width="0.1" fill="#00394f" fill-rule="nonzero" />
            <path d="M88.68 323.33L87.840004 320.91998L86.340004 318.36L85.69 314.59998L84.33 312.56998L83.66 316.40997L83.48 318.21997L84.73 319.18997L85.450005 321.03998L85.03001 322.58997L84.43001 324.02997L84.14001 325.27997L83.78001 326.94998L84.670006 328.02997L85.090004 328.32996L86.990005 325.98996L88.68001 323.32996L88.68 323.33z" stroke="#000000" stroke-width="0.1" fill="#00394f" fill-rule="nonzero" />
            <path d="M96.2 330.18L93.149994 327.97L89.09 324.5L88.67999 323.33L86.98999 325.99L85.08999 328.33L86.27999 329.22L87.47999 329.7L87.65999 331.07L87.05999 332.02002L88.48999 333.28003L91.23999 334.59003L92.96999 335.58002L95.649994 330.82L96.2 330.18z" stroke="#000000" stroke-width="0.1" fill="#00394f" fill-rule="nonzero" />
            <path d="M104.61 337.92L104.37 337.63L103.23 336.26L101.98 334.35L101.26 332.86002L99.41 331.79L96.850006 330.65L96.200005 330.18L95.65 330.82L92.97 335.58002L93.33 335.78003L95.53 336.68002L97.56 337.51L98.759995 338.35L100.67 339.78L102.58 340.56L103.67 340.6L104.61 337.92z" stroke="#000000" stroke-width="0.1" fill="#00394f" fill-rule="nonzero" />
            <path d="M116.2 337.09L116.009995 336.98L114.509995 336.2L113.67999 335.49002L111.829994 334.41003L111.16999 334.59003L110.80999 334.77002L111.46999 335.49002L112.77999 336.26L114.329994 337.28L115.10999 338.35L114.329994 339.54L113.13999 339.84L112.12999 340.02L110.219986 339.72L109.139984 339.48L107.889984 339.90002L106.09998 339.60004L105.37998 338.83005L104.609985 337.92004L103.66998 340.60004L104.00998 340.62003L107.10998 341.22003L110.04998 341.16003L113.19998 341.75003L114.14998 342.65002L114.83998 343.02002L115.389984 341.83002L115.889984 338.7L116.19998 337.09003L116.2 337.09z" stroke="#000000" stroke-width="0.1" fill="#00394f" fill-rule="nonzero" />
            <path d="M123.19 345.74L122.75 344.8L121.44 340.68L120.48 339.00998L118.69 338.16998L116.96 337.50998L116.2 337.08997L115.89 338.69995L115.39 341.82996L114.84 343.01996L115.71 343.47995L117.44 345.14996L119.82 347.41995L121.38 349.08997L122.75 351.29996L123.05 351.66995L122.990005 347.57996L123.19 345.73996L123.19 345.74z" stroke="#000000" stroke-width="0.1" fill="#00394f" fill-rule="nonzero" />
            <path d="M132.28 349.23L130.63 350.11002L126.93001 350.53003L124.84001 349.27002L123.19001 345.74002L122.99001 347.58002L123.05001 351.67L124.36001 353.27002L127.22001 353.99002L130.33 354.40002L132.95 352.91003L133.44 352.35004L132.28 349.23004L132.28 349.23z" stroke="#000000" stroke-width="0.1" fill="#00394f" fill-rule="nonzero" />
            <path d="M142.97 345.02L140.29001 344.97L137.97 345.33L134.68001 347.96L132.28001 349.22998L133.44002 352.34998L134.39001 351.24L135.46002 349.63L136.77002 348.44L138.44002 347.42L141.07002 346.35L142.99002 346.19L142.97002 345.02L142.97 345.02z" stroke="#000000" stroke-width="0.1" fill="#00394f" fill-rule="nonzero" />
            <path d="M154.52 346.35L154.34001 343.12L154.14001 343.12L152.47002 344.13998L149.66002 345.03L143.64001 345.03L142.97002 345.02L142.99002 346.19L143.28001 346.17L144.71 346.23L147.28001 346.83002L149.55002 347.12003L151.51003 347.12003L153.54002 346.65002L154.52002 346.35004L154.52 346.35z" stroke="#000000" stroke-width="0.1" fill="#00394f" fill-rule="nonzero" />
            <path d="M165.37 339.66L164.81999 339.19L164.87999 340.26L162.79 341.75L160.76999 343.07L157.84 343.30002L156.76999 343.01L154.34 343.12L154.51999 346.35L154.73999 346.29L157.95999 345.87L160.34999 345.51L162.79 345.09L163.93 343.66L165.65999 343.07L165.68999 343.06L165.36998 339.66L165.37 339.66z" stroke="#000000" stroke-width="0.1" fill="#00394f" fill-rule="nonzero" />
            <path d="M175.63 339.34L175.39 339.13L174.06999 339.36002L170.96999 340.14L168.87999 339.6L165.71999 339.96L165.36998 339.66L165.68999 343.06L167.32999 342.71L170.48999 343.06998L172.45999 344.43997L173.88998 345.38998L175.08998 347.24L175.40999 347.99L175.68 344.66998L175.62999 339.34L175.63 339.34z" stroke="#000000" stroke-width="0.1" fill="#00394f" fill-rule="nonzero" />
            <path d="M180.28 349.06L180.04 348.62L177.65 345.63L176.15999 343.01L177.18 340.74002L175.62999 339.34003L175.68 344.67L175.40999 347.99002L175.68999 348.62003L177.05998 349.75003L178.54999 351.42004L180.33998 353.09006L180.15999 354.76007L180.93999 356.19006L182.02998 356.89008L180.27998 349.0601L180.28 349.06z" stroke="#000000" stroke-width="0.1" fill="#00394f" fill-rule="nonzero" />
            <path d="M189.02 356.92L188.93001 356.85L187.26001 355.9L184.88 353.44998L183.38 351.65997L180.76001 349.92996L180.28001 349.05997L182.03001 356.88995L182.73001 357.32996L185.35 359.23996L188.28 360.72995L190.37 362.09995L191.81 363.12994L189.02 356.91995L189.02 356.92z" stroke="#000000" stroke-width="0.1" fill="#00394f" fill-rule="nonzero" />
            <path d="M199.55 364.47L198.90001 364.37L198.53001 363.69998L198.30002 363.3L197.47002 362.03998L195.32002 361.02997L191.62003 359.11996L189.02002 356.91995L191.81001 363.12994L192.46 363.59995L194.84001 365.14993L196.51001 365.67993L199.14001 366.69992L202.48001 367.11993L203.26001 367.23993L199.55 364.46994L199.55 364.47z" stroke="#000000" stroke-width="0.1" fill="#00394f" fill-rule="nonzero" />
            <path d="M209.8 365.83L208.81 365.68L206.66 365.86L205.11 365.97998L203.5 365.38998L201.35 364.72998L199.55 364.46997L203.26001 367.23996L203.97002 367.34995L206.54002 368.18994L209.88002 369.31995L213.16002 370.57996L214.59001 370.85995L209.80002 365.82996L209.8 365.83z" stroke="#000000" stroke-width="0.1" fill="#00394f" fill-rule="nonzero" />
            <path d="M220.09 371.37L218.48 370.34L217.15999 368.97L214.77998 367.41L211.24998 366.04L209.79999 365.83002L214.58998 370.86002L215.54999 371.06003L217.51999 372.13004L218.82999 374.28003L219.48999 376.67004L219.79 379.93005L220.09 371.37006L220.09 371.37z" stroke="#000000" stroke-width="0.1" fill="#00394f" fill-rule="nonzero" />
            <path d="M222 384.97L222 384.96L221.75 382.74L221.64 381.68L221.64 379.88998L221.46 377.19998L221.76001 374.34L220.62001 371.71L220.09001 371.37L219.79001 379.93L219.79001 379.94998L219.77 380.34998L219.67 382.92996L219.67 384.54996L220.03 386.68997L221.04 389.55997L222.71999 391.41995L221.99998 384.96994L222 384.97z" stroke="#000000" stroke-width="0.1" fill="#00394f" fill-rule="nonzero" />
            <path d="M229.46 390.82L228.98001 390.21002L227.13 388.72003L224.8 387.11005L223.19 386.57004L222 384.97003L222.72 391.42004L223.19 391.94003L225.52 393.02002L228.26001 393.61002L229.82 394.33002L231.19 395.52002L233.16 396.72003L229.46 390.82004L229.46 390.82z" stroke="#000000" stroke-width="0.1" fill="#00394f" fill-rule="nonzero" />
            <path d="M240.02 394.46L239.90001 394.63L237.39001 394.93L234.17001 393.66998L230.83002 392.53998L229.46002 390.81998L233.16002 396.71997L233.46002 396.89996L235.37003 397.84998L236.92003 398.33L238.35002 399.69998L240.38002 400.71997L241.93002 400.94998L243.77002 401.44998L240.02002 394.46L240.02 394.46z" stroke="#000000" stroke-width="0.1" fill="#00394f" fill-rule="nonzero" />
            <path d="M253.59 407.76L253.51 407.64L253.51 405.67L251.72 402.69L249.39 400.95L246.53 400L243.9 397.79L242.29 395.82L243 393.55002L241.09 392.90002L240.01999 394.46002L243.76999 401.45L245.02998 401.79L247.05998 402.75L248.37999 404.6L249.26999 406.27002L250.57999 407.46002L251.41998 409.07L251.77998 410.17L253.58998 407.76L253.59 407.76z" stroke="#000000" stroke-width="0.1" fill="#00394f" fill-rule="nonzero" />
            <path d="M263.74 412.87L262.69998 412.06L260.55 411.34L258.22 410.86L256.19 410.21L254.7 409.31L253.59 407.76L251.78 410.17L252.08 411.04L254.22 412.29L257.51 413.19L260.07 413.07L261.33002 413.79L261.91 414.4L263.74 412.87z" stroke="#000000" stroke-width="0.1" fill="#00394f" fill-rule="nonzero" />
            <path d="M263.77 422.86L265.37997 420.59L266.15997 417.07L264.90997 413.79L263.73996 412.87L261.90997 414.4L262.58 415.1L263.77 416.71L264.37 417.49L264.37 418.8L263.88998 420.40997L263.24 421.53998L262.16 422.55997L261.27 423.50998L260.81998 424.00998L263.77 422.86z" stroke="#000000" stroke-width="0.1" fill="#00394f" fill-rule="nonzero" />
            <path d="M261.44 432.66L260.91 432.47L259.6 431.63L259.18 430.79L259.12 429.84L260.07 427.69L261.68 425.72L263.77 422.86002L260.81998 424.01L260.30997 424.59L259.23996 425.19L258.33997 425.84L257.68997 426.68L257.38998 428.11L257.38998 429.06L257.97998 430.68L258.63998 431.93L259.59998 432.69998L260.22998 433.15L261.43997 432.66L261.44 432.66z" stroke="#000000" stroke-width="0.1" fill="#00394f" fill-rule="nonzero" />
            <path d="M271.23 436.87L271.17 436.82L270.22 435.69L268.19 434.14L265.74 432.59003L264.97 431.99002L263.77 433.24002L262.4 433.00003L261.44 432.66003L260.23 433.15002L260.97 433.66003L262.94 434.91003L265.15 437.24002L267.65 438.31003L269.8 438.67L270.31 439.25L271.23 436.87z" stroke="#000000" stroke-width="0.1" fill="#00394f" fill-rule="nonzero" />
            <path d="M280.28 443.84L280.13 443.86L279.11002 442.43L278.16 440.75998L276.07 439.38998L274.52002 439.15L272.55002 438.08L271.23 436.87L270.31 439.25L272.43 441.66L273.74 443.69L273.5 445.77L274.4 447.68L275.49 449.44998L279.19998 445.55997L280.27997 443.83997L280.28 443.84z" stroke="#000000" stroke-width="0.1" fill="#00394f" fill-rule="nonzero" />
            <path d="M288.65 445.73L286.93 444.82L287.41 442.67L289.02 441.36002L290.62997 439.57L289.08 437.54L286.56998 437.96002L284.3 438.2L283.11 440.76L282.33 443.57L280.28 443.84L279.2 445.56L275.49002 449.45L275.65002 449.71002L277.74002 451.86002L279.89 452.1L282.21002 451.32L286.05002 450.19L288.65002 445.73L288.65 445.73z" stroke="#000000" stroke-width="0.1" fill="#00394f" fill-rule="nonzero" />
            <path d="M298.19 451.3L296.9 448.46L294.38998 447.74L292.24 447.56998L288.84 445.83L288.65 445.72998L286.05 450.18997L286.62997 450.00998L289.55 449.41998L292.65997 450.96997L295.11 452.99997L296.24 454.24997L298.19 451.29996L298.19 451.3z" stroke="#000000" stroke-width="0.1" fill="#00394f" fill-rule="nonzero" />
            <path d="M306.26 458.56L305.25 458.66998L303.16 457.77L299.94 455.86L299.04 453.53L298.21002 451.32L298.19003 451.30002L296.24002 454.25003L296.84003 454.91003L298.51004 457.71002L300.66003 459.86002L303.40002 461.35L304.95 461.03L306.26 458.56z" stroke="#000000" stroke-width="0.1" fill="#00394f" fill-rule="nonzero" />
            <path d="M316.1 457.41L316.48 454.68L314.44 455.03L312.11002 456.04L308.89 456.22L308 458.37L306.26 458.56L304.95 461.03L307.16 460.58L311.1 458.25L314.2 457.53L316.1 457.41z" stroke="#000000" stroke-width="0.1" fill="#00394f" fill-rule="nonzero" />
            <path d="M325.2 461.32L324.77002 459.74002L323.33002 458.01L322.08002 456.58002L320.23 455.14L316.89 454.61002L316.48 454.68002L316.1 457.41003L318.02002 457.29004L320.95 457.95004L322.86002 460.40005L322.56003 462.43005L322.34003 464.26004L324.00003 462.89005L325.20004 461.32004L325.2 461.32z" stroke="#000000" stroke-width="0.1" fill="#00394f" fill-rule="nonzero" />
            <path d="M328.67 471.94L327.15002 470.78L326.68002 468.51L325.78003 465.65002L325.42004 464.28003L325.24005 461.47003L325.20004 461.32004L324.00003 462.89005L322.34003 464.26004L322.32004 464.45004L322.32004 467.44003L322.08005 469.65002L322.02005 472.33002L322.44006 472.57L325.30005 472.69L325.72006 472.93L328.67007 471.94L328.67 471.94z" stroke="#000000" stroke-width="0.1" fill="#00394f" fill-rule="nonzero" />
            <path d="M336.1 476.87L340.42 471.5L339.21002 471.56L337.00003 472.45L334.79004 472.99002L332.70004 472.99002L329.42004 472.51L328.67004 471.94L325.72003 472.93L326.85004 473.59L327.51004 474.9L329.42004 476.27L330.85004 476.81L333.00003 476.69L336.10004 476.87L336.1 476.87z" stroke="#000000" stroke-width="0.1" fill="#00394f" fill-rule="nonzero" />
            <path d="M347.59 479.47L345.48 478.66L343.98 476.57L343.27002 473.7L341.89 471.44L340.42 471.5L336.1 476.87L336.11002 476.87L337.42 478.06L336.88 480.09L337.30002 480.69L338.91 481.05L340.64 479.49L341.95 478.78L342.91 479.2L343.03 479.98L347.59 479.47z" stroke="#000000" stroke-width="0.1" fill="#00394f" fill-rule="nonzero" />
            <path d="M358.6 485.5L358.65 480.21L357.54 475.15L357.47 475.19998L356.58 476.50998L355.74 477.69998L353.77 479.02L351.44 479.97L348.28 479.73L347.59 479.47L343.03 479.98L343.15 480.69L341.66 482.06L341.42 484.27L341.72 485.81998L344.04 486.71997L346.37 486.71997L349.65 486.71997L351.86 486.88998L354.78998 486.47998L357.52997 485.69998L358.59998 485.49997L358.6 485.5z" stroke="#000000" stroke-width="0.1" fill="#00394f" fill-rule="nonzero" />
            <path d="M368.7 472.83L366.01 472.38998L364.16 472.44998L361.29 472.74997L359.26 473.99997L357.54 475.14996L358.65 480.20996L358.6 485.49997L360.99002 485.03998L362.84003 484.44998L365.05002 483.43L367.32 481.22L369.32 481.02L369.09 477.52L368.69998 472.83L368.7 472.83z" stroke="#000000" stroke-width="0.1" fill="#00394f" fill-rule="nonzero" />
            <path d="M378.88 478.71L379.53 475.81L379.88 472.09L379.13 472.33L376.27002 474L374.36002 473.76L371.73 474L368.93002 472.87L368.7 472.83L369.09003 477.52L369.32004 481.02L370.18002 480.93L370.60004 479.55L372.87003 478.3L375.55002 477.22998L378.72003 478.18L378.88004 478.71L378.88 478.71z" stroke="#000000" stroke-width="0.1" fill="#00394f" fill-rule="nonzero" />
            <path d="M389.87 484.49L389.52 482.72L388.03 480.57L388.68 478.6L389.75998 475.61002L390.58997 474.54L390.23996 472.69L388.43997 471.5L384.73996 470.96L381.81995 471.44L379.87994 472.09L379.52994 475.81L378.87994 478.71L379.72995 481.4L380.32996 483.13L379.24997 484.87L378.77997 486.36L378.65997 487.31L379.78998 488.57L380.8 489.36002L385.56 486.68002L389.87 484.49002L389.87 484.49z" stroke="#000000" stroke-width="0.1" fill="#00394f" fill-rule="nonzero" />
            <path d="M384.95 494.39L386.24002 491.73L388.56003 488.74002L389.22003 488.86002L390.12003 485.7L389.87003 484.49002L385.56003 486.68002L380.80002 489.36002L381.16 489.64L381.16 490.59003L380.69 492.09003L379.79 493.58002L378.6 494.89L378.66 496.68002L380.33002 497.16003L381.73 498.43002L384.95 494.39z" stroke="#000000" stroke-width="0.1" fill="#00394f" fill-rule="nonzero" />
            <path d="M389.77 504.66L389.69998 504.62L387.00998 501.34L384.44998 495.43L384.94998 494.38998L381.72998 498.43L382.24 498.88998L384.68 503.59998L386.77 507.3L387.34 508.87997L389.77 504.65997L389.77 504.66z" stroke="#000000" stroke-width="0.1" fill="#00394f" fill-rule="nonzero" />
            <path d="M400.18 510.31L399.84 510.29L395.07 508.2L389.77002 504.66L387.34003 508.88L388.33002 511.6L389.82 515.06L392.68 517.81L393.75998 518.3L394.15 517.20996L396.63998 514.57996L400.18 510.30997L400.18 510.31z" stroke="#000000" stroke-width="0.1" fill="#00394f" fill-rule="nonzero" />
            <path d="M412.01 510.31L411 510.05L405.75 510.65L400.18 510.31L396.63998 514.58L394.15 517.21L393.75998 518.30005L396.37997 519.48004L399.95996 521.39L403.77997 521.87L404.96997 521.54L406.07996 518.91L409.12994 515.36L412.00995 510.31L412.01 510.31z" stroke="#000000" stroke-width="0.1" fill="#00394f" fill-rule="nonzero" />
            <path d="M423.4 513.81L420.91 513.02997L416.26 511.41998L412.01 510.31L409.13 515.36L406.08002 518.91L404.97003 521.54L406.83002 521.02997L408.86002 520.19995L414.05002 519.48L416.52002 518.8L418.29 516.35L423.4 513.81z" stroke="#000000" stroke-width="0.1" fill="#00394f" fill-rule="nonzero" />
            <path d="M427.9 523.63L427.88998 523.24L428.78998 521.75L427.53998 519.42L426.27997 516.61L423.77997 513.93L423.39996 513.81L418.28998 516.35L416.52 518.8L417.09 518.64L420.91 518.52L423 518.94L424.43 521.27L424.8 523.88L427.9 523.63z" stroke="#000000" stroke-width="0.1" fill="#00394f" fill-rule="nonzero" />
            <path d="M434.72 531.24L431.95 531.24L429.45 529.08997L427.95 526.45996L427.90002 523.62994L424.80002 523.87994L424.85 524.18994L425.69 526.63995L426.82 529.62994L428.67 532.4899L430.28 533.49994L430.79 533.49994L434.72 531.2399L434.72 531.24z" stroke="#000000" stroke-width="0.1" fill="#00394f" fill-rule="nonzero" />
            <path d="M441.09 528.18L443.81 523.64L440.96 525.93L438.34 528.31L436.73 529.98L434.88 531.24L434.72 531.24L430.79 533.5L432.91 533.5L435.35 532.37L438.34 530.27997L439.94998 528.97L441.09 528.18z" stroke="#000000" stroke-width="0.1" fill="#00394f" fill-rule="nonzero" />
            <path d="M455.06 523.1L453.5 522.39996L449.62 521.62994L447.59 521.86993L444.6 522.99994L443.81 523.63995L441.09 528.17993L442.46 527.2399L444.53998 525.62994L448.77997 524.01996L451.84998 524.25995L455.05997 523.1L455.06 523.1z" stroke="#000000" stroke-width="0.1" fill="#00394f" fill-rule="nonzero" />
            <path d="M461.88 531.64L461.73 528.79004L460.42 526.34L458.09003 524.61005L456.06003 523.54004L455.06003 523.10004L451.85004 524.26L452.54004 524.31L456.12003 525.09L458.57004 526.82L460.12003 528.49L460.71002 530.7L461.88004 531.64L461.88 531.64z" stroke="#000000" stroke-width="0.1" fill="#00394f" fill-rule="nonzero" />
            <path d="M457.92 542.76L458.87003 540.61L460.06003 537.68L461.49002 534.7L461.91003 532.25L461.88004 531.64L460.71002 530.7L460.90002 531.42L460.18002 533.74L459.23 535.95L458.39 537.5L457.2 539.53L455.92 541.35004L457.92 542.76z" stroke="#000000" stroke-width="0.1" fill="#00394f" fill-rule="nonzero" />
            <path d="M459.18 553.33L458.44998 552.9L456.65997 550.27L456.11996 548.36005L456.65997 545.92004L457.48996 543.71L457.91995 542.76L455.91995 541.35004L455.75995 541.56006L454.92996 543.6501L454.68997 546.69006L454.92996 548.9001L455.57996 551.1101L456.53995 552.6701L459.17996 553.3301L459.18 553.33z" stroke="#000000" stroke-width="0.1" fill="#00394f" fill-rule="nonzero" />
            <path d="M470.65 553.51L469.66998 553.8L466.56998 554.57L463.09998 554.75L460.77997 554.27L459.17996 553.33L456.53995 552.67004L456.71994 552.96L459.10995 554.87L460.77997 555.41L464.47998 556L466.21 555.82L467.47998 555.72003L470.65 553.51z" stroke="#000000" stroke-width="0.1" fill="#00394f" fill-rule="nonzero" />
            <path d="M477.19 551.02L473.61002 549.32L475.1 550.33L474.21 552.06L472.88998 552.84L470.65 553.51L467.47998 555.72003L469.06998 555.59L471.75998 555.35004L474.86 554.27L476.40997 553.32L477.30997 551.35004L477.18997 551.02L477.19 551.02z" stroke="#000000" stroke-width="0.1" fill="#00394f" fill-rule="nonzero" />
            <path d="M468.36 543.87L466 541.57L464.3 542.10004L463.52 544.55005L464.3 546.28L466.15 547.53L470.33 549.02L473.61 549.32L477.18997 551.02L476.52997 549.26L475.21997 548.42L474.14996 548.19L471.87997 547.11L470.02997 545.74L468.53998 544.43L468.36 543.87z" stroke="#000000" stroke-width="0.1" fill="#00394f" fill-rule="nonzero" />
            <path d="M473.98 534.26L472.68002 532.56L471.76 532.97L469.61002 534.27997L468.71002 535.64996L467.88004 537.92L467.40002 540.37L466.03003 541.56L466.00003 541.57L468.36002 543.87L468.00003 542.7L468.60004 541.14L470.62003 538.16003L471.40002 536.31006L472.59003 534.82007L473.98004 534.2601L473.98 534.26z" stroke="#000000" stroke-width="0.1" fill="#00394f" fill-rule="nonzero" />
            <path d="M483.24 535.39L481.61 533.39L480.22998 532.55L476.94998 531.89L473.78998 532.07L472.68 532.56L473.97998 534.26L475.4 533.68L476.94998 533.44L480.11 534.16L481.61 535.24L482.91998 537.38L483.4 538.51L483.24 535.39z" stroke="#000000" stroke-width="0.1" fill="#00394f" fill-rule="nonzero" />
            <path d="M491.06 544.02L489.78 543.59L487.75 541.80005L486.86 540.25006L485.18997 537.74005L483.45996 535.65L483.23996 535.39L483.39996 538.51L483.92996 539.77L484.94995 542.64L485.47995 544.84L486.25995 546.69L487.62994 547.77L489.08994 548.07L491.05994 544.02L491.06 544.02z" stroke="#000000" stroke-width="0.1" fill="#00394f" fill-rule="nonzero" />
            <path d="M496.88 541.81L498.66 536.32L496.88 537.86L495.39 540.61L494.2 543.58997L491.57 544.18994L491.06 544.01996L489.09 548.06995L489.9 548.24994L492.41 548.30994L494.14 547.76996L495.51 546.39996L495.87 544.30994L496.69998 542.0399L496.87997 541.80994L496.88 541.81z" stroke="#000000" stroke-width="0.1" fill="#00394f" fill-rule="nonzero" />
            <path d="M509.59 538.23L508.22 537.56L506.07 536.49L503.03 535.24L499.63 535.47L498.66 536.31995L496.88 541.80994L498.44 539.76996L500.29 538.33997L502.73 537.8L505.18002 538.16L507.03003 539L509.59003 538.23L509.59 538.23z" stroke="#000000" stroke-width="0.1" fill="#00394f" fill-rule="nonzero" />
            <path d="M519.55 544.69L518.01 543.41L514.73 540.95996L511.38998 539.11L509.59 538.23L507.03 539L508.34 539.59L510.37 540.67004L513 542.58L515.27 544.66003L516.33 546.18005L519.55 544.69006L519.55 544.69z" stroke="#000000" stroke-width="0.1" fill="#00394f" fill-rule="nonzero" />
            <path d="M527.43 551.49L527.62 551.17L526.13 551.35L524.1 551.11L522.49 549.86L521.23 547.52997L519.74 544.83997L519.55 544.68994L516.33 546.17993L516.82 546.86993L518.43 551.0499L518.97 552.7199L519.25995 554.5699L520.1 555.7099L521.47 556.0599L521.61 556.0799L527.43 551.48987L527.43 551.49z" stroke="#000000" stroke-width="0.1" fill="#00394f" fill-rule="nonzero" />
            <path d="M534.99 558.22L532.93 557.37994L530.36 556.05994L527.98 554.9899L527.01996 554.26996L526.72 552.72L527.43 551.49L521.61 556.08L523.44 556.24L525.53 556.48L528.22003 557.44L530.60004 558.51L532.33 559.29004L532.9 559.52L534.99005 558.22003L534.99 558.22z" stroke="#000000" stroke-width="0.1" fill="#00394f" fill-rule="nonzero" />
            <path d="M546.59 558.77L546.18005 558.99L544.09 559.47L541.7 559.57996L538.12 559.35L535.56 558.44995L534.99 558.22L532.89996 559.51996L534.95996 560.36L536.86993 561.01996L540.0899 561.37994L541.5199 561.31995L543.0799 561.19995L544.4999 560.98L546.5899 558.76996L546.59 558.77z" stroke="#000000" stroke-width="0.1" fill="#00394f" fill-rule="nonzero" />
            <path d="M549.68 553.23L544.1 551.01996L545.94 552.42L548.15 553.62L549.64 554.99L548.09 557.97L546.59 558.76996L544.5 560.98L544.63 560.95996L546.84 560.17993L548.33 559.4699L550.18 557.9699L551.01 556.5399L551.01 555.1099L550.3 553.8599L549.68 553.2299L549.68 553.23z" stroke="#000000" stroke-width="0.1" fill="#00394f" fill-rule="nonzero" />
            <path d="M547.55 544.11L544.81 543.05L543.31 543.35L541.58 543.76996L540.69 545.37994L540.93 546.86993L542.06 548.8399L543.91 550.86993L544.1 551.01996L549.68 553.23L549.46 553.01996L547.61005 551.29L546.12006 549.44L545.34 547.89L545.46 545.98004L546.30005 544.43005L547.55005 544.11005L547.55 544.11z" stroke="#000000" stroke-width="0.1" fill="#00394f" fill-rule="nonzero" />
            <path d="M556.6 541.57L556.20996 541.5L553.39996 541.68L550.05994 542.22L547.5499 542.69995L545.69995 542.86993L544.80994 543.0499L547.5499 544.1099L549.1599 543.7099L551.6099 543.7699L554.4199 543.8899L556.67993 544.2499L557.93994 544.54987L559.2299 545.1299L556.5999 541.5699L556.6 541.57z" stroke="#000000" stroke-width="0.1" fill="#00394f" fill-rule="nonzero" />
            <path d="M567.99 544.86L567.07 544.31L565.34 543.71L562.53 542.75L559.19 542.04L556.6 541.57L559.23 545.13L560.02997 545.5L562.29 546.75L563.67 546.99L566.35 548.13L569.95996 550.16003L567.99 544.86005L567.99 544.86z" stroke="#000000" stroke-width="0.1" fill="#00394f" fill-rule="nonzero" />
            <path d="M575.9 553.55L574.17004 551.76996L571.96 548.36L571.30005 547.35L569.57007 545.8L567.99005 544.86L569.96 550.16L570.17004 550.26996L571.72003 551.94995L573.69 554.08997L574.95 556.05994L575.9 557.13995L577.87 558.74994L578.01 558.82996L575.9 553.5499L575.9 553.55z" stroke="#000000" stroke-width="0.1" fill="#00394f" fill-rule="nonzero" />
            <path d="M586.02 559.56L583.96 558.93L581.27 557.62L579.24 556.42L577.81 555.41L576.14 553.8L575.9 553.55L578.01 558.83L580.73 560.42004L583.24 561.91003L585.63 563.28L588.19 564.84L588.28 564.88L586.02 559.56z" stroke="#000000" stroke-width="0.1" fill="#00394f" fill-rule="nonzero" />
            <path d="M595.17 566.46L594.51996 566.21L592.79 565.61005L590.69995 564.12006L589.56995 562.2701L588.85 560.9601L586.11 559.5801L586.01996 559.56006L588.27997 564.88007L590.99994 566.3901L594.2199 568.00006L597.4399 568.9501L599.2099 569.4701L595.1699 566.4601L595.17 566.46z" stroke="#000000" stroke-width="0.1" fill="#00394f" fill-rule="nonzero" />
            <path d="M606.66 569.46L604.61 569.25L601.14 568.42L597.21 567.22L595.17004 566.45996L599.21 569.47L600.31 569.79L603.52997 570.92L605.98 571.51996L609.68 571.63995L610.77997 571.36993L606.66 569.45996L606.66 569.46z" stroke="#000000" stroke-width="0.1" fill="#00394f" fill-rule="nonzero" />
            <path d="M616.83 564.96L616.78 565.08L614.27 568.12L612.19 569.01L608.19 569.61L606.66 569.45996L610.77997 571.36993L612.12994 571.0399L614.68994 570.1499L617.13995 567.9399L618.08997 566.5699L618.32996 564.47986L618.82996 563.91986L616.82996 564.95984L616.83 564.96z" stroke="#000000" stroke-width="0.1" fill="#00394f" fill-rule="nonzero" />
            <path d="M627.21 555.89L621.72003 554.95L621.50006 555.53L619.17004 556.60004L618.4501 558.57L617.9101 562.27L616.8301 564.96L618.8301 563.92004L619.7101 562.93005L621.6701 562.3901L622.6301 560.9601L624.1801 559.1101L626.27014 556.9601L627.21014 555.8901L627.21 555.89z" stroke="#000000" stroke-width="0.1" fill="#00394f" fill-rule="nonzero" />
            <path d="M633.21 548.71L629.99005 547.73004L629.49005 547.83L627.4 548.31L625.49005 549.08L623.88007 550.16003L622.63007 552.54004L621.7201 554.95L627.2101 555.89L627.5801 555.47003L627.88007 553.86005L627.6401 552.60004L627.4001 551.35004L627.4601 550.27L629.5501 549.08L631.2801 548.9L633.2101 548.71L633.21 548.71z" stroke="#000000" stroke-width="0.1" fill="#00394f" fill-rule="nonzero" />
            <path d="M643.52 549.22L641.83 546.83997L638.74 546.93L634.45 546.93L632.48004 547.23L629.99005 547.73L633.21 548.70996L634.27 548.6L635.64 548.66L637.83 548.66L639.58 548.89996L640.06 550.26996L640.89 550.68994L641.73004 550.26996L642.38007 549.49994L643.2201 549.19995L643.5201 549.22L643.52 549.22z" stroke="#000000" stroke-width="0.1" fill="#00394f" fill-rule="nonzero" />
            <path d="M653.3 544.17L652.58 542.95L652.23004 543.71L649.72003 545.38L646.86005 546.34L642.92004 546.81L641.83 546.84L643.52 549.22003L644.17004 549.26L645.85004 549.26L647.52 549.32L648.65 549.02L649.84 548.01L650.86005 547.11L652.05005 545.74L653.07007 544.49L653.30005 544.17L653.3 544.17z" stroke="#000000" stroke-width="0.1" fill="#00394f" fill-rule="nonzero" />
            <path d="M652.9 533.01L650.55005 531.89L650.98004 532.73004L653.07007 536.79004L653.54004 540.85004L652.58 542.95L653.3 544.17L654.32 542.75L654.86 541.02L654.86 539.41003L654.5 537.50006L654.2 535.9501L653.60004 534.4001L653.01 533.3901L652.9 533.0101L652.9 533.01z" stroke="#000000" stroke-width="0.1" fill="#00394f" fill-rule="nonzero" />
            <path d="M654.2 522.06L652.52 521.58L651.69 522.11005L649.01 525.75006L649.55 529.92004L650.55 531.89L652.89996 533.01L652.47 531.59L651.99 530.16003L651.69 528.73004L651.57 527.18005L651.81 525.98004L652.35 524.49005L652.76996 523.60004L653.77997 522.34L654.19995 522.06L654.2 522.06z" stroke="#000000" stroke-width="0.1" fill="#00394f" fill-rule="nonzero" />
            <path d="M665.66 519.39L663.56995 517.26L661.89996 517.63L657.95996 519.12L654.01996 520.61L652.51996 521.57996L654.19995 522.05994L655.26996 521.32996L656.82996 520.67L658.07996 520.43L660.29 520.02L662.13995 519.72003L663.62994 519.60004L665.66 519.39z" stroke="#000000" stroke-width="0.1" fill="#00394f" fill-rule="nonzero" />
            <path d="M677.41 520.69L675.31 515.43L673.84 515.89996L670.85004 516.25995L665.72003 516.79L663.57 517.25995L665.66003 519.38995L666.55005 519.2999L668.7601 519.17993L670.37006 519.2399L672.04004 519.4799L673.66003 519.7199L675.98004 520.3199L677.36005 520.66986L677.41003 520.6899L677.41 520.69z" stroke="#000000" stroke-width="0.1" fill="#00394f" fill-rule="nonzero" />
            <path d="M687.11 515.39L683.73 508.51L683.68 508.68002L683.32 511.30002L680.94 513.09L677.42 514.76L675.31 515.43L677.41 520.69L679.02997 521.09L680.75995 520.91003L681.47 520.43005L682.79 519.72003L683.98 518.82L685.35 517.63L686.37 516.32L687.11 515.39z" stroke="#000000" stroke-width="0.1" fill="#00394f" fill-rule="nonzero" />
            <path d="M691.8 504.52L690.39 499.84L690.43 500.02L689.52997 502.88998L686.55 504.19998L684.64 505.44998L683.73004 508.50998L687.11005 515.38995L687.32007 515.11993L688.1601 513.92993L688.7601 512.61993L689.11005 511.29993L689.59 509.80994L690.19 508.43994L690.84 507.12994L691.32 505.92993L691.68 504.85992L691.8 504.51993L691.8 504.52z" stroke="#000000" stroke-width="0.1" fill="#00394f" fill-rule="nonzero" />
            <path d="M688.09 495.48L680.74005 494.53L681.30005 494.71L683.74005 495.78998L687.62006 496.74L689.9501 497.75998L690.3901 499.83997L691.80005 504.51996L692.34 503.06995L692.81 500.49994L692.46 498.04993L691.56 496.73993L690.13 496.13992L688.1 495.48993L688.08997 495.47992L688.09 495.48z" stroke="#000000" stroke-width="0.1" fill="#00394f" fill-rule="nonzero" />
            <path d="M680.56 487.66L679.04 485.63L677.88995 487.19L676.63995 490.3L676.87994 492.5L678.7899 493.88L680.7399 494.53L688.0899 495.48L686.0699 494.35L684.5199 493.34L683.1999 492.44L681.8899 491.25L680.7599 490.12L680.1599 489.22L680.2799 487.85L680.55994 487.66L680.56 487.66z" stroke="#000000" stroke-width="0.1" fill="#00394f" fill-rule="nonzero" />
            <path d="M687.92 479.18L686.92 477.32L686.85 478.30002L685.88995 480.03003L683.61993 481.58002L680.51996 483.61002L679.04 485.63L680.56 487.66L681.24 487.19L681.64996 485.7L682.18994 484.33002L683.08997 483.31003L684.51996 482.54004L685.82996 481.76004L686.85 481.40005L687.5 480.39005L687.86 479.31006L687.92 479.18005L687.92 479.18z" stroke="#000000" stroke-width="0.1" fill="#00394f" fill-rule="nonzero" />
            <path d="M696.84 472.8L694.62006 469.40997L692.87006 469.46997L690.25006 471.61996L688.6401 473.93997L687.0201 475.96997L686.9201 477.31998L687.9201 479.17996L688.70013 477.34998L689.59015 476.14996L690.5502 475.07996L691.3202 474.29996L693.4702 473.04996L695.0802 472.68997L696.1602 472.74997L696.8402 472.79996L696.84 472.8z" stroke="#000000" stroke-width="0.1" fill="#00394f" fill-rule="nonzero" />
            <path d="M706.11 472.16L704.20996 471.38L700.74994 470.24L696.32996 469.34998L694.61993 469.40997L696.8399 472.8L698.5399 472.93L700.2099 473.35L701.9399 473.82L703.1399 474.30002L703.6199 474.42L704.8699 474.78L706.1799 474.12L708.08984 474.47998L708.2598 474.56998L706.1098 472.15997L706.11 472.16z" stroke="#000000" stroke-width="0.1" fill="#00394f" fill-rule="nonzero" />
            <path d="M716.62 477.47L714.9 476.15L711.91003 474.18L708.87006 472.87L706.9601 472.51L706.1101 472.16L708.26013 474.57L709.76013 475.38L711.4901 476.57L712.9301 477.7L714.5401 478.90002L715.7901 479.91003L717.1601 480.87003L717.9201 481.52002L716.6201 477.47003L716.62 477.47z" stroke="#000000" stroke-width="0.1" fill="#00394f" fill-rule="nonzero" />
            <path d="M727.11 482.37L724.08997 482.24L721.69995 481.05L719.12994 479.43L716.68994 477.52L716.61993 477.47L717.9199 481.52L718.5399 482.06L719.42993 482.9L720.32996 483.79L721.1 484.63L722.24 485.7L723.67 486.83002L725.22 487.55002L726.88995 487.43002L727.54 487.19003L727.11 482.37003L727.11 482.37z" stroke="#000000" stroke-width="0.1" fill="#00394f" fill-rule="nonzero" />
            <path d="M737.65 481.02L738.48004 479.24L738.41003 479.25998L735.78 480.21L732.80005 481.52L730.35004 481.81998L728.26 482.41998L727.11 482.37L727.54 487.19L728.32 486.89L729.87 486L731.01 485.28L732.44 484.03L733.34 483.31L734.77 482.48L736.08 481.82L737.51 481.05002L737.65 481.02002L737.65 481.02z" stroke="#000000" stroke-width="0.1" fill="#00394f" fill-rule="nonzero" />
            <path d="M748.88 483.43L747.06 482.18L745.02997 480.15L742.17 478.66L740.2 478.72L738.48004 479.24L737.65 481.02L738.89 480.75L741.21 480.33L742.77 480.44998L744.32 481.11L745.15 482.12L746.05005 483.43L747.12006 485.03998L747.2601 485.19998L748.3901 483.97998L748.88007 483.43L748.88 483.43z" stroke="#000000" stroke-width="0.1" fill="#00394f" fill-rule="nonzero" />
            <path d="M758.22 490.56L757.75 490.12L755.96 488.68L753.51 486.88998L751.96 485.75998L749.93 484.15L748.88 483.43L748.39 483.97998L747.26 485.19998L748.08 486.12L749.81 487.55L751.06 488.56998L752.55 489.75998L753.69 490.77L755.42 491.97L756.42 492.79L758.22 490.56z" stroke="#000000" stroke-width="0.1" fill="#00394f" fill-rule="nonzero" />
            <path d="M766.26 498.94L764.49 497.82L762.45996 496.32L761.8 494.47L760.73 492.86002L758.22 490.56003L756.42 492.79004L756.43 492.80005L757.63 494.00006L759.3 495.43005L760.13 496.20004L760.97003 496.98004L761.09 497.10004L762.22003 497.99005L764.49005 499.73004L765.5101 500.47003L766.2601 498.94003L766.26 498.94z" stroke="#000000" stroke-width="0.1" fill="#00394f" fill-rule="nonzero" />
            <path d="M776.87 501.96L776.6 502.59L774.93 502.77L771.58997 501.87L769.25995 500.74L766.45996 499.06998L766.25995 498.93997L765.50995 500.46997L766.45996 501.15997L767.88995 502.05L769.92 503.06998L771.35 503.83997L772.61 503.89996L774.87 503.95996L775.83 504.67996L776.25 504.55997L776.87 501.95996L776.87 501.96z" stroke="#000000" stroke-width="0.1" fill="#00394f" fill-rule="nonzero" />
            <path d="M778.57 494.37L772.7 491.72998L774.63 493.93997L776.66003 497.21997L777.74005 499.83997L776.87006 501.95996L776.25006 504.55997L777.1401 504.31998L778.1601 503.71997L779.1101 502.40997L779.5901 500.73996L779.4101 499.18997L779.1101 496.97998L778.8701 495.61L778.6301 494.65L778.5701 494.37L778.57 494.37z" stroke="#000000" stroke-width="0.1" fill="#00394f" fill-rule="nonzero" />
            <path d="M774.8 483.86L765.37 482.46997L765.68 482.71997L767.12 485.51996L769.32 488.38995L772.55 491.54996L772.7 491.72995L778.57 494.36996L778.28 492.97995L777.80005 491.36996L778.10004 490.52997L778.81006 488.91998L779.35004 487.49L779.23004 486L778.5101 484.75L777.32007 484.21L776.93005 484.18L775.23004 484.03L774.80005 483.86L774.8 483.86z" stroke="#000000" stroke-width="0.1" fill="#00394f" fill-rule="nonzero" />
            <path d="M774.85 476.26L768.93 472.86002L768.79 472.87003L767 472.93002L764.49 473.82004L763.64996 475.02005L763.64996 476.27005L763.82996 477.82004L762.16 478.90002L760.49 479.43002L759.48 480.81003L759.66 481.46002L759.42 483.31003L760.43 483.85004L761.8 483.67004L763.47 482.36005L764.49 481.76004L765.37 482.47003L774.8 483.86005L773.56 483.37006L772.19 482.18005L772.43 480.93005L773.08 478.96005L773.98004 477.29004L774.85004 476.26004L774.85 476.26z" stroke="#000000" stroke-width="0.1" fill="#00394f" fill-rule="nonzero" />
            <path d="M782.07 466.79L778.08 466.4L776.43 468.44998L774.75 470.96L772.01 472.56998L768.93 472.86L774.85 476.25998L775.64996 475.31998L777.31995 472.86996L778.50995 471.37997L779.64996 469.88998L781.01996 468.03998L782.06995 466.78998L782.07 466.79z" stroke="#000000" stroke-width="0.1" fill="#00394f" fill-rule="nonzero" />
            <path d="M791.62 459.75L787.36 459.18L783.89 461.05L781.44 462.59998L779.11 465.11L778.07996 466.4L782.06995 466.79L782.32996 466.48L784.6 464.57L786.32996 463.38L788.11993 462.49L789.9099 461.16998L790.80994 460.34L791.61993 459.75L791.62 459.75z" stroke="#000000" stroke-width="0.1" fill="#00394f" fill-rule="nonzero" />
            <path d="M802.31 454.75L797.64 453.21L795.7 454.25L791.52 457.11L787.76 458.96L787.36 459.18L791.62 459.75L791.88 459.56L792.96 458.61L794.57 457.77L796.12 456.99L797.91 456.09998L800.48 455.19998L802.31 454.74997L802.31 454.75z" stroke="#000000" stroke-width="0.1" fill="#00394f" fill-rule="nonzero" />
            <path d="M818.5 452.68L816.53 452.03998L814.5 451.43997L811.76 449.58997L808.65 448.51996L806.15 449.05997L803.82 448.51996L802.62 450.78995L799.04 452.45996L797.63995 453.20996L802.30994 454.74997L802.61993 454.66998L805.36993 454.31L807.51996 454.07L810.37994 454.01L813.12994 454.25L814.14996 454.43L818.49994 452.68L818.5 452.68z" stroke="#000000" stroke-width="0.1" fill="#00394f" fill-rule="nonzero" />
            <path d="M828.76 458.49L828.47003 458.19L825.96 456.1L822.86005 454.37L820.05005 453.16998L818.50006 452.68L814.1501 454.43L815.4601 454.66998L818.2601 455.86L820.2901 457.11L822.3201 458.61L824.0501 460.15997L824.2701 460.37997L828.7601 458.48996L828.76 458.49z" stroke="#000000" stroke-width="0.1" fill="#00394f" fill-rule="nonzero" />
            <path d="M835.08 468.47L834.14 466.36002L832.88 463.68002L830.79 460.64L828.75995 458.49002L824.26996 460.38004L825.48 461.59003L826.97 463.44003L828.35 465.17004L829.95996 466.78003L831.14996 468.21002L831.97 469.44003L835.07996 468.47003L835.08 468.47z" stroke="#000000" stroke-width="0.1" fill="#00394f" fill-rule="nonzero" />
            <path d="M843.4 475.05L842.43005 475.31998L839.98004 475.13998L838.37006 474.12L837.06006 472.15L835.75006 469.94998L835.0801 468.46997L831.9701 469.43997L832.2301 469.83L832.6401 470.96L832.7601 472.27L833.42004 473.16998L834.32007 474.47998L835.3901 475.66998L836.6401 476.50998L838.7901 476.56998L839.7601 476.59998L843.4001 475.05L843.4 475.05z" stroke="#000000" stroke-width="0.1" fill="#00394f" fill-rule="nonzero" />
            <path d="M855.01 472.97L851.92 472.81L847.56 473.76L845.3 474.54L843.39996 475.05002L839.75995 476.6L840.45996 476.63L841.66 476.51L844.51996 476.27002L846.18994 475.91003L847.61993 475.61005L849.2899 475.02005L850.42993 474.72006L851.44995 474.63007L855.00995 472.97006L855.01 472.97z" stroke="#000000" stroke-width="0.1" fill="#00394f" fill-rule="nonzero" />
            <path d="M862.58 473.25L864.13 467.71L863.44 469.65L861.95 472.03L859.68 472.63L857.83 472.99L855.32 472.99L855.01 472.97L851.45 474.63L852.4 474.54L854.13 474.84L855.72003 475.18L856.71 475.61L858.01 475.61L859.86 475.08L861.58997 474L862.57996 473.25L862.58 473.25z" stroke="#000000" stroke-width="0.1" fill="#00394f" fill-rule="nonzero" />
            <path d="M877 461.94L873.84 461.53L871.26 462.96L867.44 464.22L865.83 465.17L864.33 467.14L864.13 467.71002L862.58 473.25003L863.08 472.87003L864.04004 471.80002L864.99005 469.65002L866.30005 468.21002L867.91003 466.90002L869.53 465.95L870.72003 465.35L871.50006 464.93L873.5201 465.47L874.4801 467.14L874.8401 466.42L873.82007 465.05002L874.18005 463.62003L876.09 462.66003L877 461.94003L877 461.94z" stroke="#000000" stroke-width="0.1" fill="#00394f" fill-rule="nonzero" />
            <path d="M886.59 454.94L883.32 454.36002L882.36 455.32L879.43 457.59L877.64 458.9L874.60004 461.11L873.84 461.53L877 461.94L877.28 461.71L878.30005 460.58L880.03 459.37997L882.12006 458.06998L884.92004 456.15997L886.59 454.93997L886.59 454.94z" stroke="#000000" stroke-width="0.1" fill="#00394f" fill-rule="nonzero" />
            <path d="M897.05 449.3L888.33 444.28998L887.07 448.15997L887.31 450.30997L885.94 451.79996L884.69 452.99997L883.32 454.35995L886.59 454.93994L887.13 454.54993L891.01 452.21994L894.77 450.18994L897.05005 449.29993L897.05 449.3z" stroke="#000000" stroke-width="0.1" fill="#00394f" fill-rule="nonzero" />
            <path d="M906.2 441.88L892.93 433.86002L892.86 433.90002L890.76996 435.33002L889.57996 438.67L888.43994 443.92L888.32996 444.29L897.0499 449.30002L897.9899 448.94003L900.67993 447.33005L902.6499 445.48004L904.4999 443.92004L906.1999 441.88004L906.2 441.88z" stroke="#000000" stroke-width="0.1" fill="#00394f" fill-rule="nonzero" />
            <path d="M908.73 431.37L898.88 424.83L899.25 426.56L898.71 428.88998L896.5 431.74997L892.93 433.85995L906.2 441.87994L906.29004 441.77994L906.77 439.44995L906.29004 437.71994L905.87006 434.54993L907.54004 433.29993L908.32007 431.6299L908.73004 431.3699L908.73 431.37z" stroke="#000000" stroke-width="0.1" fill="#00394f" fill-rule="nonzero" />
            <path d="M919.95 421.66L918.4 421.31L913.27 420.53L909.27 419.87L902.05005 420.22998L898.77 424.28998L898.88 424.83L908.73 431.37L910.23 430.44L912.97 431.15L915.48 431.93L917.63 431.50998L919.06 430.84998L919.81 430.30997L919.95 421.65997L919.95 421.66z" stroke="#000000" stroke-width="0.1" fill="#00394f" fill-rule="nonzero" />
            <path d="M931.6 423.93L931.12 423.99L928.01 423.69L924.91003 422.92L922.10004 422.14L919.95 421.66L919.81 430.31L921.87 428.83L923.6 427.99L925.98 429.24L928.97 429.78L930.45996 429.78L930.69995 429.81L931.6 423.93z" stroke="#000000" stroke-width="0.1" fill="#00394f" fill-rule="nonzero" />
            <path d="M1188.42 449.98L1187.13 449.19L1182.91 446.61002L1182.49 447.15002L1179.21 446.52002L1175.27 445.77002L1174.51 444.12003L1173.24 441.36002L1172.76 439.09003L1170.64 438.69003L1170.09 450.06003L1171.15 450.31003L1173.63 451.43002L1175.92 452.46002L1178.9501 453.90002L1180.9701 454.87003L1188.42 449.98z" stroke="#000000" stroke-width="0.1" fill="#00394f" fill-rule="nonzero" />
            <path d="M942.35 431.68L942.64996 420.88L940.77997 420.96L938.27997 421.06998L937.55 421.69998L935.89 423.15997L934.75 423.42996L931.6 423.92996L930.69995 429.80997L931.67993 429.91995L934.01996 429.98996L936.73 430.13995L938.22 430.31995L940.75995 431.27994L942.35 431.67993L942.35 431.68z" stroke="#000000" stroke-width="0.1" fill="#00394f" fill-rule="nonzero" />
            <path d="M952.42 426.92L950.25 425.86002L948.07 424.23L946.81 422.62003L943.95 420.83002L942.99 420.87003L942.64996 420.88004L942.35 431.68002L942.54 431.72003L946.81 432.65002L947.41 435.09003L947.17 437.60004L946.2 437.69003L944.66003 437.84003L943.17004 437.00003L941.80005 437.11002L939.41003 437.42L939.05005 438.25L938.46 439.63L939.59 441.76L940.34 443.59L940.9 445.18L941.19 445.35L945.59 442.24002L950.56 435.56003L952.33 427.14L952.42004 426.92L952.42 426.92z" stroke="#000000" stroke-width="0.1" fill="#00394f" fill-rule="nonzero" />
            <path d="M964.02 427.06L961.97003 427.58L958.27 427.94998L953.60004 427.49997L952.42004 426.91998L952.33 427.13998L950.56 435.56L945.59 442.24L941.19 445.34998L943.65 446.84998L946.57 448.15997L949.32 448.87997L951.51 448.75998L954.39 448.52997L956.76 447.91998L959.51 446.33L961.31 445L962.63 443.81L962.68 443.01L962.8 441.2L964.74 440.65002L965.43 440.46002L966.02997 438.33002L966.17 436.36002L964.02997 427.06003L964.01996 427.06003L964.02 427.06z" stroke="#000000" stroke-width="0.1" fill="#00394f" fill-rule="nonzero" />
            <path d="M969.17 426.02L969.01996 424.15L966.51996 421.41998L961.74994 419.86L961.39996 420.15997L959.93994 421.47998L959.1699 423.27997L960.7099 423.24997L962.4499 423.21997L963.0099 424.49997L963.66986 426.00998L964.1199 427.03998L964.0199 427.05997L964.0299 427.05997L966.1699 436.35995L966.17993 436.25995L965.8999 434.20996L965.4899 432.34998L965.4099 430.80997L965.7899 429.73996L967.0299 428.41995L968.5999 426.59995L969.1699 426.01996L969.17 426.02z" stroke="#000000" stroke-width="0.1" fill="#00394f" fill-rule="nonzero" />
            <path d="M976.73 417.03L971.88995 413.84L970.82996 414.29L967.86993 415.64L964.49994 417.48L961.74994 419.86002L966.51996 421.42L969.01996 424.15002L969.17 426.02002L970.01 425.16003L971.16003 424.05005L972.89 421.90005L973.97003 420.71005L976.12006 417.43005L976.73004 417.03006L976.73 417.03z" stroke="#000000" stroke-width="0.1" fill="#00394f" fill-rule="nonzero" />
            <path d="M983.32 412.52L983.10004 412.22998L979.99005 411.87997L977.80005 412.11996L975.22003 412.40997L973.43005 413.17996L971.8901 413.83997L976.7301 417.02997L978.1401 416.10995L980.4101 416.82996L980.2101 417.97995L979.9901 419.21994L978.02014 419.80994L979.76013 420.82993L980.39014 422.03992L983.3201 412.5299L983.3201 412.5199L983.32 412.52z" stroke="#000000" stroke-width="0.1" fill="#00394f" fill-rule="nonzero" />
            <path d="M991.16 421.41L988.35 419.1L983.31995 412.52002L983.31995 412.53003L980.38995 422.04004L981.00995 423.22003L983.51996 424.53003L985.00995 426.32004L984.80994 427.10004L984.4699 428.41003L991.1599 421.41003L991.16 421.41z" stroke="#000000" stroke-width="0.1" fill="#00394f" fill-rule="nonzero" />
            <path d="M999.85 429.39L999.81 429.36002L996.23 426.86002L994.79 424.65002L993.75995 423.7L992.13995 422.2L991.16 421.41L984.47 428.41L981.95996 428.71L980.23 428.71L979.62 428.27L978.32 427.33L979.22003 428.53L978.57 429.6L977.15 431.54L975.76 433.84L975.98 435.52L976.23 437.41998L976 437.96L976.58 439.06L977.10004 440.04L977.61005 441L975.87006 442.9L975.88007 445.3L977.13007 445.41998L980.7701 446.90997L982.8601 447.63998L985.8101 448.65L987.1201 449.09L999.8501 429.38998L999.85 429.39z" stroke="#000000" stroke-width="0.1" fill="#00394f" fill-rule="nonzero" />
            <path d="M1010.2 435.17L1008.88 434.64L1005.37 433.07L1002.54 431.11002L999.85 429.39L987.12 449.09003L989.01 449.71002L989.77 449.75003L991.75 449.83002L993.7 449.93002L995.51 450.01L998.67 449.12L999.26996 447.97998L1000.42993 446.21997L1002.00995 443.88998L1002.85 442.66998L1007.06 441.50998L1010.2 435.16998L1010.2 435.17z" stroke="#000000" stroke-width="0.1" fill="#00394f" fill-rule="nonzero" />
            <path d="M1018.42 439.17L1018.61 429.6L1017.74 430.35L1016.11 431.76L1013.57 433.61002L1010.61 435.33002L1010.2 435.17L1007.06 441.51L1009.12 440.94L1011.86 441.01L1014.49 440.85L1017 440.28L1017.76 439.68L1018.42 439.16998L1018.42 439.17z" stroke="#000000" stroke-width="0.1" fill="#00394f" fill-rule="nonzero" />
            <path d="M1027.91 431.96L1015.21 423.05L1013.95 424.28998L1011.86 426.02L1011.26996 426.97998L1013.82996 427.50998L1015.32996 427.88998L1017.20996 428.66998L1018.61 429.59998L1018.42 439.16998L1020.57996 437.47998L1024.38 434.61L1027.91 431.96z" stroke="#000000" stroke-width="0.1" fill="#00394f" fill-rule="nonzero" />
            <path d="M1024.26 417.72L1022.43 417.01L1020.14996 417.97L1017.23 419.87L1017.12 421.19L1015.75 422.53L1015.21 423.05L1027.91 431.96L1027.9501 431.91998L1031.1301 429.56998L1033.2802 428.02997L1034.1101 428.30997L1036.3301 429.05997L1037.5001 429.78998L1038.0502 430.12997L1024.2601 417.71997L1024.26 417.72z" stroke="#000000" stroke-width="0.1" fill="#00394f" fill-rule="nonzero" />
            <path d="M1049.9 411.48L1048.99 411.53L1044.8099 411.59L1041.0499 411.28L1037.6499 409.91L1034.3599 412.18L1030.3599 414.74L1031.8599 416.28998L1031.0999 420.74L1028.7499 420.65L1028.1699 420.12L1026.4299 418.56L1024.2599 417.72L1038.0499 430.13L1039.0499 430.75L1040.2699 431.51L1039.45 432.19L1037.99 433.41L1036.39 434.73L1033.6901 435.43002L1030.1901 436.35004L1029.9401 438.17004L1029.77 439.51004L1032.61 439.86005L1035.5499 440.09006L1037.4199 440.14005L1040.8699 440.55005L1042.6599 441.42004L1044.0599 442.25003L1046.7799 443.86002L1047.08 444.26L1049.8999 411.48L1049.9 411.48z" stroke="#000000" stroke-width="0.1" fill="#00394f" fill-rule="nonzero" />
            <path d="M1060.64 413.25L1060.62 413.25L1058.75 413.98L1056.5 414.86002L1050.3 411.46002L1049.9 411.48L1047.0801 444.26L1048.0701 445.55002L1048.92 446.67L1050.14 445.49002L1051.61 444.07L1052.74 442.97L1054.83 444.58L1056.07 442.69998L1057.1599 441.02997L1058.2299 439.38995L1058.6599 437.06995L1059.1299 434.49994L1060.5399 433.61993L1060.6399 413.24994L1060.64 413.25z" stroke="#000000" stroke-width="0.1" fill="#00394f" fill-rule="nonzero" />
            <path d="M1071.96 415.95L1070.2899 414.74002L1067.69 414.00003L1065.46 413.37003L1062.85 413.30002L1060.64 413.25003L1060.54 433.62003L1060.67 433.54004L1062.11 432.65002L1064.61 433.43002L1067.25 434.26L1069.34 434.85L1071.71 434.36002L1071.7899 434.34003L1071.95 415.98004L1071.96 415.95004L1071.96 415.95z" stroke="#000000" stroke-width="0.1" fill="#00394f" fill-rule="nonzero" />
            <path d="M1082.11 422.09L1079 420.48L1074.27 417.63L1071.96 415.95L1071.95 415.98L1071.7899 434.34003L1073.33 434.02002L1075.94 434.54L1078.5499 435.12L1081.2699 435.87L1082.2299 435.49L1083.2998 435.06L1082.0798 422.23L1082.1099 422.09L1082.11 422.09z" stroke="#000000" stroke-width="0.1" fill="#00394f" fill-rule="nonzero" />
            <path d="M1093.6 424.71L1090.94 424.71L1087.5299 424.16998L1083.95 423.03998L1082.11 422.08997L1082.08 422.22998L1083.2999 435.05997L1084.61 434.52997L1086.19 433.89996L1087.5399 433.35995L1091.69 433.46994L1094.1599 433.53995L1094.7499 433.96994L1093.5999 424.70993L1093.6 424.71z" stroke="#000000" stroke-width="0.1" fill="#00394f" fill-rule="nonzero" />
            <path d="M1103.87 441.22L1104.37 420.28L1102.76 420.83L1100.84 422.19998L1099.1799 423.38998L1095.4199 424.71L1093.6 424.71L1094.75 433.97L1096.19 435.03L1097.98 436.35L1101.6 438.37L1102.58 438.91L1103.6599 440.85L1103.8699 441.22L1103.87 441.22z" stroke="#000000" stroke-width="0.1" fill="#00394f" fill-rule="nonzero" />
            <path d="M1115.86 420.85L1115.14 420.45L1112.6 419.46002L1110.6799 419.37003L1107.47 419.22003L1104.37 420.28003L1103.87 441.22003L1104.55 442.43002L1105.9701 442.14L1108.4001 441.63L1113.0802 440.82L1114.9202 440.74002L1115.8601 420.85004L1115.86 420.85z" stroke="#000000" stroke-width="0.1" fill="#00394f" fill-rule="nonzero" />
            <path d="M1127.55 444.94L1127.1101 420.25L1123.5901 421.19L1118.4501 422.26L1115.8601 420.85L1114.9202 440.74L1115.0702 440.74L1117.1102 440.65L1118.6902 440.58L1119.6702 440.87997L1121.0802 441.3L1119.8102 442.5L1117.9001 444.14L1116.2401 445.30002L1115.1401 448.56003L1114.5702 451.27002L1116.6602 451.56003L1117.7002 450.29004L1118.9902 448.70004L1121.2302 449.50003L1125.2002 450.19003L1127.7603 449.30002L1127.6002 447.29L1127.5902 447.18002L1127.4003 444.94003L1127.5503 444.94003L1127.55 444.94z" stroke="#000000" stroke-width="0.1" fill="#00394f" fill-rule="nonzero" />
            <path d="M1136.89 444.19L1138.64 417.23L1134.8201 418.25L1131.7001 419.22L1128.3201 419.93L1127.1101 420.25L1127.55 444.94L1133.67 444.94L1136.1001 444.44L1136.8901 444.19L1136.89 444.19z" stroke="#000000" stroke-width="0.1" fill="#00394f" fill-rule="nonzero" />
            <path d="M1152.47 428L1152.1699 426.74L1152.6399 424.11L1153.4199 422.62L1152.59 419.46L1149.07 417.31L1144.6499 416.35L1142.5099 416.6L1139.1299 417.1L1138.6399 417.23L1136.8899 444.19L1138.95 443.53L1143.08 442.32L1145.96 442.01L1148.24 442.96002L1152.24 428.13004L1152.47 428.00003L1152.47 428z" stroke="#000000" stroke-width="0.1" fill="#00394f" fill-rule="nonzero" />
            <path d="M1161.02 435.62L1160.25 435.06L1157.12 433.36L1153.54 431.03L1152.78 429.34L1152.47 428L1152.24 428.13L1148.24 442.96L1148.5 443.06998L1151.51 445.38998L1154.26 447.43L1157.9 448.94L1158.3 448.93L1161.02 435.62z" stroke="#000000" stroke-width="0.1" fill="#00394f" fill-rule="nonzero" />
            <path d="M1170.64 438.69L1169.97 438.56L1166.4299 437.9L1164.7599 439.38998L1163.9899 438.53998L1161.8499 436.22998L1161.0199 435.62L1158.2999 448.93L1158.9099 448.91998L1160.3799 448.9L1164.1998 448.97998L1165.8398 449.05997L1167.7998 449.51996L1170.0898 450.05997L1170.6399 438.68997L1170.64 438.69z" stroke="#000000" stroke-width="0.1" fill="#00394f" fill-rule="nonzero" />
            <path d="M1180.97 454.87L1181.2999 455.03L1181.98 455.65L1183.63 457.16L1185.53 459.1L1187.03 460.86002L1188.4601 462.54L1189.55 464.12L1190.7201 465.83L1194.55 464.43997L1194.8 461.65997L1195 459.43997L1193.99 456.39996L1192.76 453.97995L1191.1901 452.31995L1189.77 450.80994L1188.42 449.97995L1180.9701 454.86996L1180.97 454.87z" stroke="#000000" stroke-width="0.1" fill="#00394f" fill-rule="nonzero" />
		</g>
	</g>
</g>
</svg>